<svg width="144" height="144" viewBox="0 0 144 144" fill="none" xmlns="http://www.w3.org/2000/svg">
<rect width="144" height="144" rx="20" fill="#D9D9D9"/>
<path d="M97.6666 35.3333H46.3333C43.4159 35.3333 40.618 36.4922 38.5551 38.5551C36.4922 40.618 35.3333 43.4159 35.3333 46.3333V97.6666C35.3333 100.584 36.4922 103.382 38.5551 105.445C40.618 107.508 43.4159 108.667 46.3333 108.667H97.6666C98.2697 108.658 98.8709 108.597 99.4633 108.483L100.563 108.227H100.82H101.003L102.36 107.713L102.837 107.457C103.203 107.237 103.607 107.053 103.973 106.797C104.463 106.436 104.928 106.044 105.367 105.623L105.623 105.293C105.983 104.929 106.314 104.536 106.613 104.12L106.943 103.643C107.199 103.235 107.42 102.806 107.603 102.36C107.704 102.184 107.79 102 107.86 101.81C108.043 101.37 108.153 100.893 108.3 100.417V99.8666C108.508 99.1502 108.631 98.4118 108.667 97.6666V46.3333C108.667 43.4159 107.508 40.618 105.445 38.5551C103.382 36.4922 100.584 35.3333 97.6666 35.3333ZM46.3333 101.333C45.3609 101.333 44.4282 100.947 43.7406 100.259C43.053 99.5717 42.6666 98.6391 42.6666 97.6666V81.8633L54.73 69.7633C55.0708 69.4196 55.4764 69.1469 55.9232 68.9607C56.37 68.7746 56.8493 68.6787 57.3333 68.6787C57.8174 68.6787 58.2966 68.7746 58.7434 68.9607C59.1902 69.1469 59.5958 69.4196 59.9366 69.7633L91.47 101.333H46.3333ZM101.333 97.6666C101.33 98.1187 101.243 98.5662 101.077 98.9866C100.993 99.1654 100.895 99.337 100.783 99.5C100.685 99.6552 100.575 99.8023 100.453 99.94L80.8366 80.3233L84.0633 77.0966C84.4042 76.753 84.8097 76.4802 85.2565 76.294C85.7033 76.1079 86.1826 76.0121 86.6666 76.0121C87.1507 76.0121 87.6299 76.1079 88.0768 76.294C88.5236 76.4802 88.9291 76.753 89.27 77.0966V77.0966L101.333 89.1966V97.6666ZM101.333 78.82L94.44 72C92.3416 70.009 89.5593 68.899 86.6666 68.899C83.774 68.899 80.9917 70.009 78.8933 72L75.6666 75.2266L65.1066 64.6666C63.0083 62.6756 60.2259 61.5657 57.3333 61.5657C54.4407 61.5657 51.6583 62.6756 49.56 64.6666L42.6666 71.4866V46.3333C42.6666 45.3609 43.053 44.4282 43.7406 43.7406C44.4282 43.053 45.3609 42.6666 46.3333 42.6666H97.6666C98.6391 42.6666 99.5717 43.053 100.259 43.7406C100.947 44.4282 101.333 45.3609 101.333 46.3333V78.82ZM77.5 50C76.4122 50 75.3488 50.3225 74.4443 50.9269C73.5399 51.5312 72.8349 52.3902 72.4186 53.3952C72.0024 54.4002 71.8934 55.5061 72.1057 56.573C72.3179 57.6399 72.8417 58.6199 73.6109 59.3891C74.3801 60.1583 75.3601 60.6821 76.427 60.8943C77.4939 61.1065 78.5997 60.9976 79.6047 60.5813C80.6097 60.165 81.4687 59.4601 82.0731 58.5556C82.6774 57.6511 83 56.5878 83 55.5C83 54.0413 82.4205 52.6423 81.3891 51.6109C80.3576 50.5794 78.9587 50 77.5 50Z" fill="#1B1B1B"/>
</svg>
