<svg width="144" height="144" viewBox="0 0 144 144" fill="none" xmlns="http://www.w3.org/2000/svg">
<rect width="144" height="144" rx="20" fill="#D9D9D9"/>
<path fill-rule="evenodd" clip-rule="evenodd" d="M54.6667 57.3333C54.6667 47.7604 62.4271 40 72 40C81.5729 40 89.3333 47.7604 89.3333 57.3333C89.3333 66.9063 81.5729 74.6667 72 74.6667C62.4271 74.6667 54.6667 66.9063 54.6667 57.3333ZM78.9538 75.3784C86.1956 72.5859 91.3333 65.5596 91.3333 57.3333C91.3333 46.6558 82.6775 38 72 38C61.3225 38 52.6667 46.6558 52.6667 57.3333C52.6667 65.5596 57.8044 72.5859 65.0462 75.3784C49.6037 78.5878 38 92.2721 38 108.667H40C40 90.9936 54.3269 76.6667 72 76.6667C89.6731 76.6667 104 90.9936 104 108.667H106C106 92.2721 94.3963 78.5878 78.9538 75.3784Z" fill="#1B1B1B"/>
<path d="M78.9538 75.3784L78.4141 73.9788L73.6631 75.8109L78.6486 76.847L78.9538 75.3784ZM65.0462 75.3784L65.3514 76.847L70.3369 75.8109L65.5859 73.9788L65.0462 75.3784ZM38 108.667H36.5V110.167H38V108.667ZM40 108.667V110.167H41.5V108.667H40ZM104 108.667H102.5V110.167H104V108.667ZM106 108.667V110.167H107.5V108.667H106ZM72 38.5C61.5986 38.5 53.1667 46.932 53.1667 57.3333H56.1667C56.1667 48.5888 63.2555 41.5 72 41.5V38.5ZM90.8333 57.3333C90.8333 46.932 82.4014 38.5 72 38.5V41.5C80.7445 41.5 87.8333 48.5888 87.8333 57.3333H90.8333ZM72 76.1667C82.4014 76.1667 90.8333 67.7347 90.8333 57.3333H87.8333C87.8333 66.0778 80.7445 73.1667 72 73.1667V76.1667ZM53.1667 57.3333C53.1667 67.7347 61.5986 76.1667 72 76.1667V73.1667C63.2555 73.1667 56.1667 66.0778 56.1667 57.3333H53.1667ZM89.8333 57.3333C89.8333 64.919 85.0965 71.402 78.4141 73.9788L79.4935 76.7779C87.2946 73.7697 92.8333 66.2002 92.8333 57.3333H89.8333ZM72 39.5C81.8491 39.5 89.8333 47.4843 89.8333 57.3333H92.8333C92.8333 45.8274 83.5059 36.5 72 36.5V39.5ZM54.1667 57.3333C54.1667 47.4843 62.1509 39.5 72 39.5V36.5C60.4941 36.5 51.1667 45.8274 51.1667 57.3333H54.1667ZM65.5859 73.9788C58.9035 71.402 54.1667 64.919 54.1667 57.3333H51.1667C51.1667 66.2002 56.7054 73.7697 64.5065 76.7779L65.5859 73.9788ZM39.5 108.667C39.5 92.9972 50.5907 79.9147 65.3514 76.847L64.741 73.9098C48.6166 77.2609 36.5 91.5471 36.5 108.667H39.5ZM40 107.167H38V110.167H40V107.167ZM72 75.1667C53.4985 75.1667 38.5 90.1651 38.5 108.667H41.5C41.5 91.822 55.1553 78.1667 72 78.1667V75.1667ZM105.5 108.667C105.5 90.1651 90.5015 75.1667 72 75.1667V78.1667C88.8447 78.1667 102.5 91.822 102.5 108.667H105.5ZM106 107.167H104V110.167H106V107.167ZM78.6486 76.847C93.4093 79.9147 104.5 92.9972 104.5 108.667H107.5C107.5 91.5471 95.3834 77.2609 79.259 73.9098L78.6486 76.847Z" fill="black"/>
</svg>
