<svg width="426" height="81" viewBox="0 0 426 81" fill="none" xmlns="http://www.w3.org/2000/svg">
<path d="M36.7222 39.6568C24.2222 54.6568 21.2222 57.6568 17.2222 65.6568C13.2222 73.6568 22.2222 80.6568 29.2222 78.6568C36.2222 76.6568 40.7222 72.1568 46.7222 72.1568C52.7222 72.1568 56.2222 73.1568 62.7222 78.1568C69.2222 83.1568 78.7222 76.6568 79.2222 75.6568C79.7222 74.6568 84.7222 69.1568 78.2222 60.1568C71.7222 51.1568 61.3942 40.5 58.7222 38.1568C58.1906 37.6906 45.7222 29.6568 36.7222 39.6568Z" fill="#037247" stroke="#037247"/>
<path d="M8.39417 25.5C5.89417 26 2.92222 27.8568 1.72222 32.6568C0.222222 38.6568 1.22222 43.6568 3.22222 48.1568C5.22222 52.6568 10.2222 54.1568 13.7222 54.1568C17.2222 54.1568 22.7222 51.1568 24.2222 45.1568C25.7222 39.1568 20.4966 31.9312 19.2222 30.6568C18.2222 29.6568 15.3942 25 8.39417 25.5Z" fill="#037247" stroke="#037247"/>
<path d="M32.7222 1.15686C30.8889 1.4902 26.6222 3.35686 24.2222 8.15686C21.2222 14.1569 21.2222 20.1569 24.2222 26.6569C26.6222 31.8569 32.2222 33.1569 34.7222 33.1569C36.3889 33.1569 40.2222 32.2569 42.2222 28.6569C44.7222 24.1569 45.2222 22.1569 45.7222 18.6569C46.1222 15.8569 45.5664 9.96661 42.2222 6.15686C39.4565 3.00609 36.3222 0.356865 32.7222 1.15686Z" fill="#037247" stroke="#037247"/>
<path d="M61.2222 1.65684C58.3942 3.07087 55.8222 6.05684 54.2222 9.65684C52.2222 14.1568 52.2222 18.6568 52.7222 24.6568C53.2222 30.6568 59.2222 32.6568 61.7222 33.1568C64.2222 33.6568 68.7222 32.6568 71.7222 28.6568C74.7222 24.6568 75.2222 20.6568 75.2222 17.6568C75.2222 14.6569 73.8942 9.00072 73.2222 7.65684C72.5503 6.31296 72.3942 5.49999 68.7222 2.65684C65.5349 0.1889 63.2222 0.656844 61.2222 1.65684Z" fill="#037247" stroke="#037247"/>
<path d="M90.2222 26.6569C88.7222 26.3235 84.9222 26.2569 81.7222 28.6569C78.5222 31.0569 76.3889 34.3235 75.7222 35.6569C74.7222 37.6569 73.1222 42.5569 74.7222 46.1569C76.7222 50.6569 79.2222 52.1569 79.7222 52.6569C80.2222 53.1569 83.7222 54.6569 88.2222 53.6569C92.7222 52.6569 95.7222 47.6569 95.7222 47.1569C95.7222 46.6569 98.2222 43.6569 97.7222 38.1569C97.3222 33.7569 95.2222 30.3235 94.2222 29.1569C93.5556 28.3792 91.8222 26.7905 90.2222 26.6569Z" fill="#037247" stroke="#037247"/>
<path fill-rule="evenodd" clip-rule="evenodd" d="M117 22.5V56.5H124V47C124 47 130.833 47.5 134 47C137.167 46.5 143.7 44.2 144.5 39C145.5 32.5 144.5 29 141.5 26.5C138.73 24.1918 137 23 132.5 22.5C128.9 22.1 120.667 22.3333 117 22.5ZM124 41V27.5C130.4 27.5 133.667 28.1667 134.5 28.5C139 30.5 139 33 139 35C139 37 137.5 40.5 134 41C131.2 41.4 126.167 41.1667 124 41Z" fill="#037247" stroke="#037247"/>
<path fill-rule="evenodd" clip-rule="evenodd" d="M154 46H172.5V40.5C172.333 38.8333 171 35 167 33C162 30.5 157.5 31 154 32.5C150.5 34 148 38.5 148 40.5C148 42.5 147.5 47 149 50.5C150.5 54 154.5 56 156 56.5C161 58.1667 165.5 57 165.5 57C165.5 57 170.6 55 171 53L168 50C167.167 50.8333 164.7 52.5 161.5 52.5C158.3 52.5 156.167 50.8333 155.5 50C155 49.3333 154 47.6 154 46ZM166.5 41.5H154C154 39.6667 155.3 36 160.5 36C165.7 36 166.667 39.6667 166.5 41.5Z" fill="#037247" stroke="#037247"/>
<path d="M176 31.5H179.5V25H185.5V31.5H192.5V36.5H186V49.5C186.333 50.8333 187.9 53.1 191.5 51.5L194 55C193.667 55.6667 192.1 57 188.5 57C184 57 181 55 180 51V36.5H176V31.5Z" fill="#037247" stroke="#037247"/>
<path d="M200 22H206V36.5H223V22H229.5V57H223V42H206V57H200V22Z" fill="#037247" stroke="#037247"/>
<path fill-rule="evenodd" clip-rule="evenodd" d="M237 33.5L239.5 37.5C242.167 36.1667 248.4 34.3 252 37.5C252.333 38.1667 252.9 40 252.5 42H242C240.167 42 236.3 43.3 235.5 48.5C234.7 53.7 238.833 56.3333 241 57C242.667 57.3333 246.6 57.8 249 57C251.4 56.2 252.667 55 253 54.5L253.5 57H259L258.5 37.5C258.167 35.6667 256.1 31.8 250.5 31C244.9 30.2 239.167 32.3333 237 33.5ZM252 46H243.5C242 46.5 241.5 47.6425 241.5 48.5C241.5 50.1667 242.4 52.9 246 52.5C249.6 52.1 251.5 50.5 252 49.5V46Z" fill="#037247" stroke="#037247"/>
<path d="M266 31V57H272.5V41C273.167 39.3333 276 36.1 282 36.5V31C279.833 30.5 274.9 30.5 272.5 34.5V31H266Z" fill="#037247" stroke="#037247"/>
<path d="M288 31.0001V57.0001H294V40.0001C296 37.3334 301.3 33.6001 306.5 40.0001V57.0001H313V40.0001C315 37.1667 320.3 33.2001 325.5 40.0001V57.0001H331.5V40.0001C331.333 37.6667 329.5 32.6001 323.5 31.0001C317.5 29.4001 313 32.6667 311.5 34.5001C308.833 31.8334 301.6 27.8 294 33V31.0001H288Z" fill="#037247" stroke="#037247"/>
<path fill-rule="evenodd" clip-rule="evenodd" d="M350 31C345.833 31 337.4 33.6 337 44C336.6 54.4 345.833 57 350.5 57C355 57 364 54.7 364 45.5C364 34 355.5 30.5 350 31ZM343 43.5C342.6 38.3 347.5 36.3333 350 36C356.5 37 358.5 41 358 45.5C357.5 50 353 52.5 349.5 52C346 51.5 343.5 50 343 43.5Z" fill="#037247" stroke="#037247"/>
<path d="M369 31.0001V57H375.5V40.0001C377.5 37.1667 382.8 33.2001 388 40.0001V57H394.5C394.5 57 395 42 394.5 38.5001C394 35.0001 386.7 26.6 375.5 33.0001V31.0001H369Z" fill="#037247" stroke="#037247"/>
<path d="M397 31H404L411.5 48.5L418.5 31H425L412 61.5C409.833 64.5 403.8 69.3 397 64.5L399 60.5C402.667 61.8333 409.4 62.3 407 53.5L397 31Z" fill="#037247" stroke="#037247"/>
</svg>
