<svg width="343" height="180" viewBox="0 0 343 180" fill="none" xmlns="http://www.w3.org/2000/svg">
<path d="M157.47 43.8234C143.631 60.4401 140.31 63.7635 135.881 72.6257C131.453 81.488 141.417 89.2425 149.167 87.0269C156.917 84.8113 161.899 79.8263 168.542 79.8263C175.185 79.8263 179.06 80.9341 186.256 86.473C193.452 92.0119 203.97 84.8113 204.524 83.7036C205.077 82.5958 210.613 76.503 203.417 66.5329C196.22 56.5629 184.786 44.7574 181.827 42.1617C181.239 41.6452 167.435 32.7456 157.47 43.8234Z" fill="#037247" stroke="#037247"/>
<path d="M126.107 28.1407C123.339 28.6946 120.049 30.7516 118.72 36.0689C117.06 42.7156 118.167 48.2545 120.381 53.2396C122.595 58.2246 128.131 59.8862 132.006 59.8862C135.881 59.8862 141.97 56.5629 143.631 49.9162C145.292 43.2695 139.506 35.2651 138.095 33.8534C136.988 32.7456 133.857 27.5868 126.107 28.1407Z" fill="#037247" stroke="#037247"/>
<path d="M153.042 1.17377C151.012 1.54303 146.288 3.61089 143.631 8.92825C140.31 15.5749 140.31 22.2216 143.631 29.4222C146.288 35.1827 152.488 36.6228 155.256 36.6228C157.101 36.6228 161.345 35.6258 163.56 31.6378C166.328 26.6528 166.881 24.4372 167.435 20.56C167.878 17.4582 167.262 10.9331 163.56 6.71269C160.498 3.22232 157.028 0.287547 153.042 1.17377Z" fill="#037247" stroke="#037247"/>
<path d="M184.595 1.72765C181.464 3.29409 178.617 6.6019 176.845 10.5899C174.631 15.5749 174.631 20.56 175.185 27.2067C175.738 33.8534 182.381 36.0689 185.149 36.6228C187.917 37.1767 192.899 36.0689 196.22 31.6378C199.542 27.2067 200.095 22.7755 200.095 19.4522C200.095 16.1288 198.625 9.86308 197.881 8.37435C197.137 6.88562 196.964 5.98503 192.899 2.83544C189.37 0.101491 186.81 0.619871 184.595 1.72765Z" fill="#037247" stroke="#037247"/>
<path d="M216.703 29.4222C215.042 29.053 210.835 28.9791 207.292 31.6378C203.749 34.2965 201.387 37.9152 200.649 39.3923C199.542 41.6078 197.77 47.036 199.542 51.024C201.756 56.009 204.524 57.6707 205.077 58.2246C205.631 58.7785 209.506 60.4401 214.488 59.3324C219.47 58.2246 222.792 52.6857 222.792 52.1318C222.792 51.5779 225.56 48.2545 225.006 42.1617C224.563 37.2875 222.238 33.4841 221.131 32.1917C220.393 31.3302 218.474 29.5703 216.703 29.4222Z" fill="#037247" stroke="#037247"/>
<path fill-rule="evenodd" clip-rule="evenodd" d="M1 100.176V137.84H8.75V127.317C8.75 127.317 16.3155 127.87 19.8214 127.317C23.3274 126.763 30.5607 124.215 31.4464 118.454C32.5536 111.254 31.4464 107.376 28.125 104.607C25.0584 102.05 23.1429 100.73 18.1607 100.176C14.175 99.7328 5.05952 99.9912 1 100.176ZM8.75 120.67V105.715C15.8357 105.715 19.4524 106.453 20.375 106.823C25.3571 109.038 25.3571 111.808 25.3571 114.023C25.3571 116.239 23.6964 120.116 19.8214 120.67C16.7214 121.113 11.1488 120.855 8.75 120.67Z" fill="#037247" stroke="#037247"/>
<path fill-rule="evenodd" clip-rule="evenodd" d="M41.9643 126.209H62.4464V120.116C62.2619 118.27 60.7857 114.023 56.3572 111.808C50.8215 109.038 45.8393 109.592 41.9643 111.254C38.0893 112.915 35.3215 117.9 35.3215 120.116C35.3215 122.332 34.7679 127.317 36.4286 131.194C38.0893 135.071 42.5179 137.287 44.1786 137.841C49.7143 139.687 54.6964 138.394 54.6964 138.394C54.6964 138.394 60.3429 136.179 60.7857 133.963L57.4643 130.64C56.5417 131.563 53.8107 133.409 50.2679 133.409C46.725 133.409 44.3631 131.563 43.625 130.64C43.0714 129.901 41.9643 127.981 41.9643 126.209ZM55.8036 121.224H41.9643C41.9643 119.193 43.4036 115.131 49.1607 115.131C54.9179 115.131 55.9881 119.193 55.8036 121.224Z" fill="#037247" stroke="#037247"/>
<path d="M66.3214 110.146H70.1964V102.945H76.8393V110.146H84.5893V115.685H77.3928V130.086C77.7619 131.563 79.4964 134.074 83.4821 132.302L86.25 136.179C85.8809 136.917 84.1464 138.394 80.1607 138.394C75.1786 138.394 71.8571 136.179 70.75 131.748V115.685H66.3214V110.146Z" fill="#037247" stroke="#037247"/>
<path d="M92.8929 99.622H99.5357V115.685H118.357V99.622H125.554V138.394H118.357V121.778H99.5357V138.394H92.8929V99.622Z" fill="#037247" stroke="#037247"/>
<path fill-rule="evenodd" clip-rule="evenodd" d="M133.857 112.362L136.625 116.793C139.577 115.316 146.479 113.248 150.464 116.793C150.833 117.531 151.461 119.562 151.018 121.778H139.393C137.363 121.778 133.082 123.218 132.196 128.978C131.311 134.739 135.887 137.656 138.286 138.394C140.131 138.764 144.486 139.281 147.143 138.394C149.8 137.508 151.202 136.179 151.571 135.625L152.125 138.394H158.214L157.661 116.793C157.292 114.762 155.004 110.478 148.804 109.592C142.604 108.706 136.256 111.069 133.857 112.362ZM150.464 126.209H141.054C139.393 126.763 138.839 128.028 138.839 128.978C138.839 130.825 139.836 133.852 143.821 133.409C147.807 132.966 149.911 131.194 150.464 130.086V126.209Z" fill="#037247" stroke="#037247"/>
<path d="M165.964 109.592V138.394H173.161V120.67C173.899 118.824 177.036 115.242 183.679 115.685V109.592C181.28 109.038 175.818 109.038 173.161 113.469V109.592H165.964Z" fill="#037247" stroke="#037247"/>
<path d="M190.321 109.592V138.394H196.964V119.562C199.179 116.608 205.046 112.472 210.804 119.562V138.394H218V119.562C220.214 116.423 226.082 112.029 231.839 119.562V138.394H238.482V119.562C238.298 116.977 236.268 111.365 229.625 109.592C222.982 107.82 218 111.438 216.339 113.469C213.387 110.515 205.379 106.047 196.964 111.808V109.592H190.321Z" fill="#037247" stroke="#037247"/>
<path fill-rule="evenodd" clip-rule="evenodd" d="M258.964 109.592C254.351 109.592 245.014 112.472 244.571 123.993C244.129 135.514 254.351 138.394 259.518 138.394C264.5 138.394 274.464 135.846 274.464 125.655C274.464 112.915 265.054 109.038 258.964 109.592ZM251.214 123.439C250.771 117.679 256.196 115.5 258.964 115.131C266.161 116.239 268.375 120.67 267.821 125.655C267.268 130.64 262.286 133.409 258.411 132.855C254.536 132.302 251.768 130.64 251.214 123.439Z" fill="#037247" stroke="#037247"/>
<path d="M280 109.592V138.394H287.196V119.562C289.411 116.423 295.279 112.029 301.036 119.562V138.394H308.232C308.232 138.394 308.786 121.778 308.232 117.9C307.679 114.023 299.596 104.718 287.196 111.808V109.592H280Z" fill="#037247" stroke="#037247"/>
<path d="M311 109.592H318.75L327.054 128.978L334.804 109.592H342L327.607 143.379C325.208 146.703 318.529 152.02 311 146.703L313.214 142.272C317.274 143.749 324.729 144.266 322.071 134.517L311 109.592Z" fill="#037247" stroke="#037247"/>
<path d="M115.312 166.814H151.848" stroke="#037247"/>
<path d="M171.223 165.153C169.378 162.014 164.691 157.066 160.705 162.383C156.72 167.701 166.057 175.677 171.223 179C174.176 176.969 180.412 171.689 181.741 166.814C183.402 160.722 176.205 156.29 171.223 165.153Z" fill="#037247" stroke="#037247"/>
<path d="M190.045 166.814H227.688" stroke="#037247"/>
</svg>
